<svg width="37" height="38" viewBox="0 0 37 38" fill="none" xmlns="http://www.w3.org/2000/svg">
<path d="M32.5194 0.0638427C31.5192 0.0456757 29.1957 0.462591 25.3164 3.65047C23.2022 3.00168 20.9526 2.68152 18.6991 2.68152C16.2197 2.68152 13.7141 3.06809 11.3775 3.85512C5.80795 -0.810096 3.3496 0.145946 3.3496 0.145946C1.7447 5.07371 2.73646 8.72209 3.03789 9.62819C1.15156 12.1278 0 15.3198 0 19.2319C0 22.1853 0.273772 24.8342 0.942639 27.137C0.979734 27.3147 0.96771 27.2751 1.03021 27.4272C1.17757 27.904 1.34141 28.3667 1.52556 28.8136C1.58866 28.9744 1.6461 29.0934 1.6461 29.0934C3.52634 33.3967 7.23292 36.1766 13.8278 37.0494L23.8022 37.0633C30.8354 36.207 34.2102 33.4188 35.7654 29.0864L35.8643 28.8043C36.0116 28.3667 36.1401 27.9113 36.4915 26.3785C36.8428 24.8457 37 22.1912 37 19.2307C37 14.9847 35.7012 11.5873 33.592 9.00263C33.9606 7.54187 34.453 4.29779 33.1004 0.144762C33.1004 0.144762 32.9108 0.0709467 32.5194 0.0638057L32.5194 0.0638427ZM24.6591 15.6452C26.2831 15.6409 27.6743 15.9832 28.7187 17.3287V17.3298C30.0256 19.0148 30.7904 21.0492 30.7904 23.2416C30.7904 33.4779 25.4286 33.7563 18.815 33.7563C12.2003 33.7563 6.83952 32.3379 6.83952 23.2416C6.83952 21.0637 7.59315 19.0415 8.88393 17.3633C11.0371 14.5665 14.6808 16.0475 18.815 16.0475C20.9372 16.0471 22.9303 15.6498 24.6592 15.6452L24.6591 15.6452ZM12.3399 18.6595C10.9638 18.6595 9.84815 20.9439 9.84815 23.7631C9.84815 26.5828 10.9637 28.8679 12.3399 28.8679C13.716 28.8679 14.8316 26.5828 14.8316 23.7631C14.8316 20.9443 13.7161 18.6615 12.3399 18.6595ZM25.709 18.6595C24.3329 18.6595 23.2173 20.9439 23.2173 23.7631C23.2173 26.5828 24.3329 28.8679 25.709 28.8679C27.0852 28.8679 28.2008 26.5828 28.2008 23.7631C28.2008 20.9443 27.0852 18.6615 25.709 18.6595Z" fill="#F4B945"/>
</svg>
